<?xml version="1.0" encoding="UTF-8" standalone="no"?>
<svg
   version="1.1"
   width="124.01766"
   height="69.867996"
   viewBox="0 0 124.01766 69.867996"
   id="svg13"
   sodipodi:docname="staticseek-logo-icon.svg"
   inkscape:version="1.3.2 (091e20e, 2023-11-25, custom)"
   xmlns:inkscape="http://www.inkscape.org/namespaces/inkscape"
   xmlns:sodipodi="http://sodipodi.sourceforge.net/DTD/sodipodi-0.dtd"
   xmlns="http://www.w3.org/2000/svg"
   xmlns:svg="http://www.w3.org/2000/svg">
  <defs
     id="defs13" />
  <sodipodi:namedview
     id="namedview13"
     pagecolor="#ffffff"
     bordercolor="#000000"
     borderopacity="0.25"
     inkscape:showpageshadow="2"
     inkscape:pageopacity="0.0"
     inkscape:pagecheckerboard="0"
     inkscape:deskcolor="#d1d1d1"
     inkscape:zoom="1.71"
     inkscape:cx="280.40936"
     inkscape:cy="35.380117"
     inkscape:window-width="3840"
     inkscape:window-height="2054"
     inkscape:window-x="-11"
     inkscape:window-y="-11"
     inkscape:window-maximized="1"
     inkscape:current-layer="svg13" />
  <path
     fill="#ec9131"
     d="M 121.537,28.945 95.157,2.551 A 8.505,8.505 0 0 0 90.012,0 H 8.86 A 8.86,8.86 0 0 0 0,8.859 v 52.164 c 0,4.89 3.97,8.845 8.86,8.845 h 81.123 a 8.505,8.505 0 0 0 5.16,-2.495 l 26.366,-26.365 a 8.505,8.505 0 0 0 0,-12.063 m -61.463,15.21 q 2.636,0 5.046,-3.615 2.41,-3.615 2.41,-8.746 0,-7.442 -5.358,-12.077 A 19.136,19.136 0 0 0 49.159,15.096 q -8.391,0 -14.09,5.755 a 19.42,19.42 0 0 0 -5.698,14.175 q 0,7.867 5.358,13.679 5.358,5.812 15.04,5.812 7.484,0 15.238,-3.984 c 0,0 2.65,-1.318 3.785,0.908 1.134,2.225 -1.63,3.685 -1.63,3.685 a 38.273,38.273 0 0 1 -17.393,4.281 q -11.935,0 -18.995,-7.215 a 23.814,23.814 0 0 1 -7.03,-17.208 q 0,-10.433 7.399,-17.464 a 25.09,25.09 0 0 1 17.875,-7.017 q 9.865,0 16.57,6.053 a 19.703,19.703 0 0 1 6.705,15.252 q 0,6.677 -3.756,11.907 -3.77,5.217 -9.186,5.217 -4.21,0 -5.812,-3.572 a 8.93,8.93 0 0 1 -7.186,3.7 q -4.352,0 -7.456,-3.63 -3.105,-3.614 -3.09,-9.553 0,-6.096 3.487,-9.923 a 10.915,10.915 0 0 1 8.32,-3.799 q 4.664,0 6.705,2.934 l 0.028,-0.255 c 0,0 0.213,-3.218 3.29,-2.891 2.621,0.283 2.55,3.274 2.55,3.274 l -1.586,13.438 q -0.213,1.672 -0.198,3.218 0,2.296 1.644,2.296 m 38.712,-2.495 a 6.7330146,6.7330146 0 1 1 0.028,-13.466 6.7330146,6.7330146 0 0 1 -0.028,13.466"
     id="path11" />
  <path
     fill="#ec9131"
     d="m 48.096,27.712 q -2.679,0 -4.422,2.353 a 9.923,9.923 0 0 0 -1.744,6.08 q 0,3.19 1.347,5.246 1.36,2.083 3.515,2.07 2.736,0 4.961,-2.652 c 2.212,-2.65 2.198,-4.068 2.198,-6.889 q 0,-2.41 -1.701,-4.309 a 5.387,5.387 0 0 0 -4.154,-1.9"
     id="path12" />
</svg>
