<svg xmlns="http://www.w3.org/2000/svg" version="1.1" xmlns:xlink="http://www.w3.org/1999/xlink" width="572px" height="72px" viewBox="0 0 572 72" x="0" y="0">
    <rect width="100%" height="100%" fill="transparent"></rect>
    <path fill="#ec9131" d="m192.33 9.393-1.27 5.29-4.58-1.34q-4.9-1.18-8.45-1.18-9.32 0-9.32 8.29 0 3.63 2.84 5.96 2.84 2.34 6.91 3.72 4.07 1.38 8.14 3t6.91 4.98q2.85 3.35 2.85 8.49 0 7.82-4.82 12.2-4.82 4.39-13.67 4.39-4.42 0-8.89-1.3-4.46-1.31-7.3-3.05l1.97-4.5q7.19 3.32 13.63 3.32t9.79-2.61q3.36-2.6 3.36-7.58 0-5.06-5.45-7.9-2.45-1.27-5.41-2.37-2.96-1.11-5.93-2.41-2.96-1.3-5.37-2.96t-3.95-4.51q-1.54-2.84-1.54-6.63 0-6.8 4.07-10.43t10.94-3.63q6.87 0 14.54 2.76"></path>
    <rect width="34.68" height="56.56" x="-17.34" y="-28.28" fill="none" rx="0" ry="0" transform="translate(179.52 35.41)"></rect>
    <path fill="#ec9131" d="M223.77 62.723h-5.85v-50.01h-15.48v-5.29h36.66v5.29h-15.33z"></path>
    <rect width="36.66" height="55.3" x="-18.33" y="-27.65" fill="none" rx="0" ry="0" transform="translate(221.27 35.57)"></rect>
    <path fill="#ec9131" d="m267.06 7.423 18.33 55.3h-6.64l-5.53-17.46h-19.83l-5.45 17.46h-6.24l18.17-55.3zm-12.16 32.7h16.98l-8.45-26.7z"></path>
    <rect width="43.69" height="55.3" x="-21.84" y="-27.65" fill="none" rx="0" ry="0" transform="translate(264.05 35.57)"></rect>
    <path fill="#ec9131" d="M309.33 62.723h-5.85v-50.01H288v-5.29h36.65v5.29h-15.32z"></path>
    <rect width="36.65" height="55.3" x="-18.32" y="-27.65" fill="none" rx="0" ry="0" transform="translate(306.82 35.57)"></rect>
    <path fill="#ec9131" d="M339.35 7.423v55.3h-5.93v-55.3z"></path>
    <rect width="5.93" height="55.3" x="-2.96" y="-27.65" fill="none" rx="0" ry="0" transform="translate(336.88 35.57)"></rect>
    <path fill="#ec9131" d="M373.87 63.193q-11.3 0-17.34-7.62-6.04-7.63-6.04-20.66 0-13.04 6.39-20.62 6.4-7.59 17.86-7.59 6.32 0 12.4 2.3l-1.42 4.89q-4.82-2.05-11.38-2.05-8.29 0-13.11 6.04-4.82 6.05-4.82 16.59 0 10.55 4.54 17.07 4.55 6.51 12.68 6.51 5.37 0 13.51-3.08l1.58 4.11q-6.79 4.11-14.85 4.11"></path>
    <rect width="38.23" height="56.49" x="-19.11" y="-28.25" fill="none" rx="0" ry="0" transform="translate(370.1 35.45)"></rect>
    <path fill="#ec9131" d="m427.67 9.393-1.27 5.29-4.58-1.34q-4.9-1.18-8.45-1.18-9.32 0-9.32 8.29 0 3.63 2.84 5.96 2.85 2.34 6.91 3.72 4.07 1.38 8.14 3t6.91 4.98q2.85 3.35 2.85 8.49 0 7.82-4.82 12.2-4.82 4.39-13.67 4.39-4.42 0-8.89-1.3-4.46-1.31-7.3-3.05l1.97-4.5q7.19 3.32 13.63 3.32t9.79-2.61q3.36-2.6 3.36-7.58 0-5.06-5.45-7.9-2.45-1.27-5.41-2.37-2.96-1.11-5.93-2.41-2.96-1.3-5.37-2.96t-3.95-4.51q-1.54-2.84-1.54-6.63 0-6.8 4.07-10.43t10.94-3.63q6.88 0 14.54 2.76"></path>
    <rect width="34.68" height="56.56" x="-17.34" y="-28.28" fill="none" rx="0" ry="0" transform="translate(414.86 35.41)"></rect>
    <path fill="#ec9131" d="M473.17 57.583v5.14h-29.78v-55.3h29.78v5.13h-23.86v17.54h21.89v5.29h-21.89v22.2z"></path>
    <rect width="29.78" height="55.3" x="-14.89" y="-27.65" fill="none" rx="0" ry="0" transform="translate(458.78 35.57)"></rect>
    <path fill="#ec9131" d="M515.99 57.583v5.14h-29.78v-55.3h29.78v5.13h-23.86v17.54h21.89v5.29h-21.89v22.2z"></path>
    <rect width="29.78" height="55.3" x="-14.89" y="-27.65" fill="none" rx="0" ry="0" transform="translate(501.6 35.57)"></rect>
    <path fill="#ec9131" d="m546.09 28.433 19.59 34.29h-7.42l-16.2-30.26-7.11 7.5v22.76h-5.92V7.493h5.84v24.89l23.07-24.96h7.27z"></path>
    <rect width="36.65" height="55.3" x="-18.32" y="-27.65" fill="none" rx="0" ry="0" transform="translate(547.86 35.57)"></rect>
    <path fill="#ec9131" d="m126.856 29.302-26.38-26.394A8.505 8.505 0 0 0 95.331.357H14.179a8.86 8.86 0 0 0-8.86 8.859V61.38c0 4.89 3.97 8.845 8.86 8.845h81.123a8.505 8.505 0 0 0 5.16-2.495l26.366-26.365a8.505 8.505 0 0 0 0-12.063m-61.463 15.21q2.636 0 5.046-3.615t2.41-8.746q0-7.442-5.358-12.077a19.136 19.136 0 0 0-12.985-4.621q-8.391 0-14.09 5.755a19.42 19.42 0 0 0-5.698 14.175q0 7.867 5.358 13.679t15.04 5.812q7.484 0 15.238-3.984s2.65-1.318 3.785.908c1.134 2.225-1.63 3.685-1.63 3.685a38.273 38.273 0 0 1-17.393 4.281q-11.935 0-18.995-7.215a23.814 23.814 0 0 1-7.03-17.208q0-10.433 7.399-17.464a25.09 25.09 0 0 1 17.875-7.017q9.865 0 16.57 6.053a19.703 19.703 0 0 1 6.705 15.252q0 6.677-3.756 11.907-3.77 5.217-9.186 5.217-4.21 0-5.812-3.572a8.93 8.93 0 0 1-7.186 3.7q-4.352 0-7.456-3.63-3.105-3.614-3.09-9.553 0-6.096 3.487-9.923a10.915 10.915 0 0 1 8.32-3.799q4.664 0 6.705 2.934l.028-.255s.213-3.218 3.29-2.891c2.621.283 2.55 3.274 2.55 3.274L63.92 39.012q-.213 1.672-.198 3.218 0 2.296 1.644 2.296m38.712-2.495a6.733 6.733 0 1 1 .028-13.466 6.733 6.733 0 0 1-.028 13.466"></path>
    <path fill="#ec9131" d="M53.415 28.069q-2.679 0-4.422 2.353a9.923 9.923 0 0 0-1.744 6.08q0 3.19 1.347 5.246 1.36 2.083 3.515 2.07 2.736 0 4.961-2.652c2.212-2.65 2.198-4.068 2.198-6.889q0-2.41-1.701-4.309a5.387 5.387 0 0 0-4.154-1.9"></path>
</svg>